<?xml version="1.0" encoding="UTF-8"?><svg id="uuid-eb77d38e-ae2e-4772-a0b1-06610ecb71e1" xmlns="http://www.w3.org/2000/svg" viewBox="0 0 648.09 102.86">
<title>Delhivery logo - Brandlogos.net</title><path d="M624.6,11.85v11.85h23.49V0h-23.49v11.85M.2,90.98v11.88l8.77-.13c4.82-.07,10.15-.13,11.85-.13h3.08v-23.49H.2v11.88" style="fill:#ea4333; fill-rule:evenodd;"/><path d="M93.21,5.87l-5.87,5.87v78.9l5.97,5.97,5.97,5.97h48.48v-23.63l-8.28-.13c-4.55-.07-12.82-.13-18.37-.13h-10.09v-15.26h25.9v-23.69h-25.9v-16.12l18.32.08,18.32.08.05-11.9.05-11.9h-48.69l-5.87,5.87M443.55,5.87l-5.87,5.87v78.9l5.97,5.97,5.97,5.97h48.48v-23.63l-8.28-.13c-4.55-.07-12.82-.13-18.37-.13h-10.09v-15.26h25.9v-23.69h-25.9v-16.12l18.32.08,18.32.08.05-11.9.05-11.9h-48.69l-5.87,5.87M519.64,5.87l-5.87,5.87.05,45.17.05,45.17,11.9.05,11.9.05V23.69h32.12V0h-44.27l-5.87,5.87M581.64,24.44v24.44s10.64,12.85,10.64,12.85l10.63,12.85.06,13.95.06,13.95,11.9.05,11.9.05v-27.86l10.64-12.88,10.64-12.88v-25.28h-23.49l-.05-11.9c-.04-8.09-.07-5.44-.11,8.28l-.05,20.18-4.66,5.66c-2.56,3.11-4.72,5.67-4.79,5.67-.07,0-2.26-2.58-4.87-5.74l-4.74-5.75V0h-23.69v24.44M.05,51.45c.03,28.19.07,45.94.1,39.45l.05-11.8h23.69v23.48l-6.07.06c-3.34.03,4.9.08,18.32.1l24.4.05,5.87-5.87,5.87-5.87V11.94l-5.87-5.87L60.53.2H0l.05,51.25M161.02,45.53v45.33l5.87,5.87,5.87,5.87h44.07v-23.69h-32.12V.2h-23.69v45.33M228.28,51.5v51.3h23.69v-39.35h21.08v39.35l11.9-.05,11.9-.05V.5l-11.9-.05-11.9-.05v39.35h-21.08V.2h-23.69v51.3M312.6,51.6v51.2l11.9-.05,11.9-.05V.5l-11.9-.05-11.9-.05v51.2M353.16,36.89v36.49s12.07,14.61,12.07,14.61l12.06,14.61h18.36l12.08-14.61,12.08-14.61v-36.49s.01-36.49.01-36.49h-23.89v64.44l-4.65,5.63c-2.56,3.09-4.72,5.63-4.8,5.63s-2.24-2.52-4.79-5.61l-4.64-5.61-.05-32.19-.05-32.19-11.9-.05-11.9-.05v36.49M23.89,51.34v27.51l.75.12c.41.07,5.97.13,12.35.13h11.59s0-27.5,0-27.5v-27.51h-10.81c-5.95,0-11.5-.06-12.35-.13l-1.54-.13v27.51" style="fill:#241c23; fill-rule:evenodd;"/></svg>