<?xml version="1.0" encoding="UTF-8"?><svg id="a" xmlns="http://www.w3.org/2000/svg" viewBox="0 0 1637.5439 253.6814">
<title>Xpressbees-logo - brandlogos.net</title><path d="M1580.8951,202.8264l-7.6899,1.322c-.16-.976-.5-1.892-1.02-2.758-.49-.863-1.25-1.561-2.28-2.092-1.03-.553-2.4-.827-4.11-.827-2.37,0-4.4501.54-6.23,1.624-1.76,1.086-2.77,2.462-3.03,4.134-.24,1.361.08,2.462.97,3.307.88.827,2.4301,1.517,4.65,2.069l6.51,1.543c3.75.901,6.4299,2.304,8.04,4.218,1.6399,1.892,2.21,4.352,1.71,7.385-.42,2.516-1.52,4.749-3.3101,6.698-1.76,1.946-4.0199,3.472-6.7699,4.573-2.76,1.104-5.8301,1.654-9.2101,1.654-4.8099,0-8.5599-1.018-11.25-3.06-2.6799-2.039-4.0599-4.922-4.13-8.653l8.16-1.212c.15,2.077.89,3.647,2.23,4.713,1.36,1.048,3.25,1.57,5.65,1.57,2.76.018,5.0599-.561,6.92-1.737,1.85-1.176,2.9099-2.6,3.1699-4.272.22-1.304-.0699-2.388-.88-3.25-.7899-.863-2.1899-1.526-4.1899-1.985l-6.8401-1.57c-3.8199-.902-6.5199-2.353-8.1-4.356-1.58-2.003-2.11-4.519-1.6-7.552.41-2.48,1.45-4.638,3.14-6.477,1.71-1.854,3.87-3.299,6.48-4.325,2.61-1.048,5.49-1.57,8.65-1.57,4.62,0,8.08.991,10.4,2.976,2.3099,1.964,3.63,4.602,3.96,7.91Z"/><path d="M1634.6251,202.8264l-7.6799,1.322c-.17-.976-.51-1.892-1.02-2.758-.5-.863-1.26-1.561-2.29-2.092-1.03-.553-2.4-.827-4.11-.827-2.37,0-4.4399.54-6.23,1.624-1.76,1.086-2.77,2.462-3.03,4.134-.24,1.361.08,2.462.97,3.307.88.827,2.4301,1.517,4.65,2.069l6.51,1.543c3.75.901,6.4301,2.304,8.05,4.218,1.63,1.892,2.2,4.352,1.7,7.385-.42,2.516-1.52,4.749-3.3,6.698-1.7599,1.946-4.0299,3.472-6.7799,4.573-2.76,1.104-5.8301,1.654-9.2101,1.654-4.8099,0-8.5599-1.018-11.24-3.06-2.6799-2.039-4.0599-4.922-4.14-8.653l8.16-1.212c.15,2.077.89,3.647,2.23,4.713,1.36,1.048,3.25,1.57,5.65,1.57,2.76.018,5.0701-.561,6.92-1.737,1.86-1.176,2.9099-2.6,3.1699-4.272.2201-1.304-.0699-2.388-.88-3.25-.7899-.863-2.1899-1.526-4.1899-1.985l-6.83-1.57c-3.8301-.902-6.53-2.353-8.1101-4.356-1.58-2.003-2.11-4.519-1.6-7.552.41-2.48,1.4601-4.638,3.14-6.477,1.72-1.854,3.87-3.299,6.48-4.325,2.61-1.048,5.5-1.57,8.66-1.57,4.61,0,8.0699.991,10.39,2.976,2.3099,1.964,3.64,4.602,3.96,7.91Z"/><path d="M1502.2651,235.6764c-4.16,0-7.59-.89-10.3099-2.672-2.7001-1.803-4.6001-4.328-5.6801-7.579-1.08-3.271-1.26-7.101-.52-11.495.71-4.334,2.16-8.158,4.3201-11.462,2.1699-3.308,4.87-5.89,8.11-7.746,3.25-1.857,6.84-2.782,10.77-2.782,2.3899,0,4.6399.394,6.7599,1.185,2.13.788,3.9401,2.029,5.4301,3.719,1.48,1.689,2.51,3.886,3.08,6.588.5901,2.68.5701,5.943-.0499,9.782l-.47,2.922h-33.6801l.96-6.173h25.5801c.39-2.167.2899-4.09-.3-5.761-.59-1.69-1.6-3.021-3.03-3.997-1.4199-.973-3.2-1.46-5.35-1.46-2.21,0-4.26.579-6.17,1.738-1.9199,1.158-3.5099,2.635-4.7999,4.435-1.27,1.782-2.0701,3.621-2.4,5.514l-.96,5.65c-.48,3.087-.4,5.567.25,7.439.6599,1.874,1.8099,3.236,3.47,4.08,1.65.845,3.72,1.269,6.2,1.269,1.6001,0,3.0801-.221,4.4401-.663,1.38-.459,2.6-1.128,3.66-2.012,1.0699-.901,1.96-2.021,2.6799-3.361l7.55,1.406c-1.01,2.296-2.4601,4.308-4.36,6.036-1.89,1.707-4.12,3.039-6.6901,3.994-2.5599.937-5.39,1.406-8.49,1.406Z"/><path d="M1436.8252,212.6734l-4.13,25.134h-8.24l7.0499-42.333h7.91l-1.16,6.889h.53c1.34-2.26,3.17-4.059,5.48-5.4,2.33-1.361,5.09-2.039,8.27-2.039,2.87,0,5.27.606,7.22,1.818,1.97,1.194,3.36,2.976,4.16,5.346.83,2.371.96,5.302.39,8.791l-4.52,26.928h-8.24l4.33-25.934c.49-3.068.09-5.465-1.22-7.194-1.28-1.746-3.33-2.617-6.14-2.617-1.92,0-3.6899.412-5.3199,1.238-1.62.827-2.99,2.042-4.11,3.639-1.1001,1.579-1.8601,3.493-2.26,5.734Z"/><path d="M1394.5752,237.8074l7.0499-42.333h8.24l-7.0499,42.333h-8.24ZM1407.4751,188.8594c-1.4399,0-2.6499-.478-3.6399-1.433-.9801-.973-1.4301-2.131-1.3501-3.471.0701-1.362.64-2.517,1.7101-3.475,1.0599-.973,2.2999-1.46,3.72-1.46,1.4299,0,2.63.487,3.61,1.46.97.958,1.4301,2.113,1.38,3.475-.08,1.34-.65,2.498-1.71,3.471-1.05.955-2.29,1.433-3.7201,1.433Z"/><path d="M1332.2551,253.6814l9.75-58.207h8.05l-1.13,6.862h.6899c.62-.88,1.4701-1.901,2.54-3.059,1.08-1.156,2.5-2.168,4.27-3.03,1.76-.884,3.96-1.323,6.59-1.323,3.41,0,6.3101.863,8.6801,2.589,2.37,1.728,4.0599,4.217,5.0699,7.471,1.01,3.251,1.14,7.164.38,11.74-.75,4.573-2.16,8.498-4.24,11.767-2.08,3.253-4.59,5.761-7.55,7.525-2.9399,1.746-6.13,2.618-9.5699,2.618-2.5701,0-4.6-.433-6.09-1.296-1.4701-.862-2.5601-1.874-3.28-3.032-.71-1.156-1.26-2.185-1.62-3.087h-.5l-3.75,22.462h-8.29ZM1346.5552,216.6404c-.48,2.976-.48,5.585,0,7.827.48,2.242,1.4299,3.997,2.87,5.266,1.45,1.247,3.36,1.874,5.73,1.874,2.46,0,4.62-.654,6.48-1.958,1.85-1.322,3.39-3.113,4.6-5.373,1.23-2.26,2.0901-4.806,2.5601-7.636.46-2.794.45-5.301-.02-7.525-.46-2.221-1.41-3.976-2.84-5.262-1.4401-1.287-3.39-1.929-5.87-1.929-2.41,0-4.54.615-6.4,1.845-1.84,1.233-3.36,2.949-4.5701,5.155-1.22,2.203-2.0599,4.776-2.5399,7.716Z"/><path d="M1275.5352,250.6964l9.75-58.207h8.05l-1.13,6.862h.6899c.63-.88,1.47-1.901,2.54-3.059,1.08-1.156,2.51-2.167,4.27-3.03,1.7599-.884,3.96-1.322,6.59-1.322,3.4199,0,6.3099.862,8.6799,2.588,2.37,1.728,4.0601,4.217,5.0701,7.471,1.01,3.251,1.14,7.164.39,11.74-.76,4.573-2.17,8.498-4.25,11.767-2.0701,3.253-4.5901,5.761-7.55,7.525-2.9399,1.746-6.13,2.618-9.5599,2.618-2.5801,0-4.6101-.433-6.1001-1.296-1.46-.862-2.5599-1.874-3.2699-3.032-.7201-1.156-1.26-2.185-1.63-3.087h-.5l-3.75,22.462h-8.29ZM1289.8352,213.6554c-.4701,2.976-.4701,5.585,0,7.827.48,2.242,1.4399,3.997,2.87,5.266,1.45,1.247,3.36,1.874,5.73,1.874,2.46,0,4.63-.654,6.48-1.958,1.86-1.322,3.39-3.113,4.6-5.373,1.23-2.26,2.09-4.806,2.5701-7.636.46-2.794.45-5.301-.03-7.525-.4601-2.221-1.41-3.976-2.8401-5.262-1.4399-1.287-3.3899-1.929-5.87-1.929-2.4099,0-4.5399.615-6.3999,1.845-1.8301,1.233-3.36,2.949-4.5701,5.155-1.21,2.203-2.0599,4.776-2.5399,7.716Z"/><path d="M1233.6451,238.7444c-2.6801,0-5.02-.495-7.03-1.489-2-1.009-3.48-2.472-4.4399-4.382-.9501-1.911-1.2001-4.254-.74-7.027.4-2.388,1.1899-4.355,2.37-5.898,1.1899-1.544,2.65-2.764,4.36-3.666,1.7-.919,3.5599-1.609,5.5599-2.065,2.01-.46,4.03-.8,6.0701-1.021,2.5699-.296,4.66-.544,6.25-.744,1.62-.203,2.83-.516,3.64-.937.8099-.442,1.2999-1.158,1.46-2.149v-.194c.39-2.388.04-4.245-1.05-5.567-1.0599-1.34-2.9199-2.012-5.5599-2.012-2.76,0-5.08.606-6.95,1.818-1.8501,1.215-3.2201,2.573-4.1001,4.08l-7.39-1.764c1.3201-2.573,3-4.647,5.04-6.229,2.0601-1.597,4.3101-2.756,6.75-3.472,2.4501-.734,4.9501-1.102,7.5-1.102,1.6901,0,3.4501.2,5.27.606,1.8099.386,3.47,1.102,4.96,2.15,1.5,1.047,2.62,2.543,3.36,4.492.74,1.928.8401,4.436.3301,7.522l-4.66,28.113h-8.05l1-5.788h-.34c-.6899,1.066-1.6699,2.113-2.9199,3.143-1.2301,1.027-2.7401,1.884-4.52,2.561-1.78.681-3.8401,1.021-6.17,1.021ZM1236.4552,232.1304c2.2999,0,4.33-.451,6.09-1.35,1.79-.901,3.23-2.077,4.33-3.528,1.1-1.472,1.79-3.042,2.0601-4.713l.9199-5.457c-.35.293-.97.561-1.85.8-.87.239-1.84.448-2.9199.633-1.0901.182-2.15.34-3.2001.469-1.03.128-1.88.247-2.5599.358-1.62.203-3.13.543-4.55,1.021-1.4.477-2.5601,1.164-3.5,2.065-.9399.881-1.53,2.057-1.77,3.529-.33,2.038.16,3.582,1.47,4.629,1.3201,1.03,3.15,1.544,5.4801,1.544Z"/><path d="M1174.1351,212.6734l-4.13,25.134h-8.25l9.37-56.443h8.14l-3.48,20.999h.53c1.34-2.295,3.14-4.104,5.3999-5.427,2.28-1.343,5.0701-2.012,8.38-2.012,2.9,0,5.3401.597,7.3,1.791,1.99,1.194,3.38,2.977,4.1901,5.347.83,2.352.96,5.292.3899,8.817l-4.5199,26.928h-8.2401l4.3-25.934c.51-3.104.11-5.513-1.22-7.22-1.3201-1.729-3.39-2.591-6.2001-2.591-1.97,0-3.7799.412-5.45,1.238-1.66.827-3.0599,2.042-4.2,3.639-1.13,1.579-1.91,3.493-2.3101,5.734Z"/><path d="M1093.2551,251.5804c-3.38,0-6.21-.442-8.49-1.326-2.26-.88-4.04-2.047-5.35-3.498-1.28-1.451-2.1801-3.042-2.67-4.767l7.6-2.922c.37.809.89,1.662,1.55,2.564.66.916,1.64,1.698,2.95,2.34,1.3201.645,3.13.964,5.4301.964,3.12,0,5.85-.761,8.1801-2.286,2.34-1.508,3.7799-3.914,4.33-7.221l1.3-8.322h-.53c-.62.898-1.49,1.901-2.5901,3.003-1.1,1.101-2.5299,2.059-4.2699,2.865-1.75.809-3.92,1.215-6.5,1.215-3.3501,0-6.2301-.782-8.66-2.343-2.41-1.582-4.14-3.904-5.1801-6.973-1.0499-3.086-1.1899-6.88-.4399-11.382.73-4.501,2.13-8.361,4.1899-11.576,2.0701-3.214,4.5901-5.677,7.55-7.387,2.97-1.726,6.16-2.588,9.5599-2.588,2.63,0,4.6801.438,6.15,1.322,1.49.863,2.5901,1.874,3.3101,3.03.71,1.158,1.24,2.179,1.5699,3.059h.6l1.13-6.862h8.0801l-7.17,43.27c-.58,3.639-1.92,6.624-3.99,8.958-2.0599,2.332-4.62,4.06-7.6899,5.179-3.05,1.123-6.37,1.684-9.9501,1.684ZM1097.0051,227.3544c2.35,0,4.4401-.553,6.28-1.654,1.86-1.123,3.4-2.719,4.63-4.797,1.23-2.093,2.09-4.603,2.5599-7.522.4801-2.848.4501-5.358-.08-7.525-.51-2.168-1.51-3.857-3-5.072-1.47-1.23-3.39-1.845-5.76-1.845-2.5,0-4.67.642-6.51,1.929-1.84,1.268-3.33,2.994-4.49,5.182-1.14,2.185-1.9399,4.629-2.4,7.331-.4399,2.773-.4299,5.209.03,7.301.48,2.096,1.4301,3.731,2.87,4.907,1.4301,1.176,3.38,1.765,5.87,1.765Z"/><path d="M1033.8352,212.6734l-4.13,25.134h-8.2501l7.06-42.333h7.91l-1.16,6.889h.53c1.34-2.26,3.1699-4.059,5.48-5.4,2.33-1.361,5.09-2.039,8.27-2.039,2.87,0,5.27.606,7.22,1.818,1.97,1.194,3.35,2.976,4.16,5.346.83,2.371.96,5.302.39,8.791l-4.52,26.928h-8.24l4.33-25.934c.49-3.068.09-5.465-1.22-7.194-1.28-1.746-3.33-2.617-6.14-2.617-1.92,0-3.6899.412-5.3199,1.238-1.62.827-2.9901,2.042-4.1101,3.639-1.1,1.579-1.86,3.493-2.2599,5.734Z"/><path d="M809.4882,234.8224l7.057-42.333h8.239l-7.054,42.333h-8.242ZM822.3871,185.8744c-1.433,0-2.645-.478-3.639-1.433-.973-.973-1.424-2.131-1.35-3.471.072-1.362.642-2.517,1.708-3.475,1.066-.973,2.307-1.46,3.722-1.46,1.433,0,2.636.487,3.609,1.46.976.958,1.433,2.113,1.38,3.475-.075,1.34-.645,2.498-1.711,3.471-1.045.955-2.287,1.433-3.719,1.433Z"/><path d="M952.7742,237.8074l7.057-42.333h7.964l-1.131,6.725h.441c1.141-2.278,2.803-4.069,4.988-5.373,2.189-1.325,4.523-1.985,7.001-1.985.5341,0,1.14.018,1.821.054.68.017,1.229.065,1.653.137l-1.322,7.883c-.314-.092-.884-.194-1.711-.301-.826-.132-1.68-.194-2.561-.194-1.931,0-3.722.412-5.376,1.239-1.654.808-3.042,1.94-4.161,3.391-1.123,1.432-1.848,3.068-2.176,4.904l-4.245,25.853h-8.242Z"/><path d="M911.2062,235.6764c-4.153,0-7.588-.89-10.308-2.672-2.701-1.803-4.594-4.328-5.678-7.579-1.083-3.271-1.256-7.101-.522-11.495.716-4.334,2.158-8.158,4.325-11.462,2.171-3.308,4.869-5.89,8.105-7.746,3.251-1.857,6.845-2.782,10.776-2.782,2.389,0,4.639.394,6.753,1.185,2.131.788,3.94,2.029,5.43,3.719,1.486,1.689,2.516,3.886,3.086,6.588.588,2.68.57,5.943-.056,9.782l-.466,2.922h-33.681l.964-6.173h25.576c.386-2.167.287-4.09-.301-5.761-.588-1.69-1.6-3.021-3.033-3.997-1.415-.973-3.197-1.46-5.346-1.46-2.206,0-4.263.579-6.174,1.738-1.913,1.158-3.51,2.635-4.797,4.435-1.268,1.782-2.065,3.621-2.397,5.514l-.964,5.65c-.4771,3.087-.397,5.567.248,7.439.66,1.874,1.818,3.236,3.472,4.08,1.653.845,3.722,1.269,6.203,1.269,1.597,0,3.077-.221,4.436-.663,1.379-.459,2.6-1.128,3.665-2.012,1.066-.901,1.959-2.021,2.675-3.361l7.549,1.406c-1.009,2.296-2.459,4.308-4.352,6.036-1.892,1.707-4.125,3.039-6.699,3.994-2.555.937-5.382,1.406-8.489,1.406Z"/><path d="M882.6121,192.4894l-22.41,42.333h-8.818l-8.325-42.333h8.516l5.293,32.578h.442l16.122-32.578h9.18Z"/><path d="M991.5801,237.8074l7.057-42.333h8.238l-7.05,42.333h-8.245ZM1004.4752,188.8594c-1.43,0-2.64-.478-3.63-1.433-.98-.973-1.429-2.131-1.354-3.471.072-1.362.644-2.517,1.704-3.475,1.07-.973,2.31-1.46,3.73-1.46,1.43,0,2.63.487,3.6,1.46.98.958,1.44,2.113,1.38,3.475-.07,1.34-.64,2.498-1.71,3.471-1.04.955-2.28,1.433-3.72,1.433Z"/><path d="M800.2341,178.3794l-9.37,56.443h-8.242l9.37-56.443h8.242Z"/><path d="M741.0541,235.6764c-4.152,0-7.588-.89-10.308-2.672-2.701-1.803-4.594-4.328-5.677-7.579-1.084-3.271-1.257-7.101-.523-11.495.717-4.334,2.158-8.158,4.326-11.462,2.17-3.308,4.868-5.89,8.104-7.746,3.251-1.857,6.845-2.782,10.777-2.782,2.388,0,4.638.394,6.752,1.185,2.131.788,3.94,2.029,5.43,3.719,1.486,1.689,2.5161,3.886,3.086,6.588.588,2.68.571,5.943-.056,9.782l-.466,2.922h-33.681l.964-6.173h25.577c.385-2.167.286-4.09-.302-5.761-.588-1.69-1.6-3.021-3.033-3.997-1.415-.973-3.197-1.46-5.346-1.46-2.206,0-4.263.579-6.173,1.738-1.914,1.158-3.511,2.635-4.797,4.435-1.269,1.782-2.066,3.621-2.398,5.514l-.964,5.65c-.477,3.087-.397,5.567.248,7.439.66,1.874,1.8181,3.236,3.472,4.08,1.654.845,3.722,1.269,6.203,1.269,1.597,0,3.077-.221,4.436-.663,1.379-.459,2.6-1.128,3.665-2.012,1.066-.901,1.959-2.021,2.675-3.361l7.55,1.406c-1.009,2.296-2.46,4.308-4.353,6.036-1.892,1.707-4.125,3.039-6.698,3.994-2.556.937-5.383,1.406-8.49,1.406Z"/><path d="M679.0081,235.6494c-3.436,0-6.3459-.872-8.7339-2.618-2.371-1.764-4.054-4.272-5.045-7.525-.973-3.269-1.084-7.194-.332-11.767.773-4.576,2.197-8.489,4.272-11.74,2.078-3.254,4.594-5.743,7.552-7.471,2.959-1.726,6.147-2.588,9.565-2.588,2.627,0,4.665.438,6.119,1.322,1.469.863,2.553,1.874,3.251,3.03.699,1.158,1.224,2.179,1.57,3.059h.469l3.501-20.972h8.242l-9.373,56.443h-8.048l1.132-6.588h-.69c-.642.902-1.534,1.931-2.672,3.087-1.122,1.158-2.5551,2.17-4.301,3.032-1.747.863-3.905,1.296-6.478,1.296ZM681.7932,228.6224c2.37,0,4.493-.627,6.367-1.874,1.893-1.269,3.463-3.024,4.714-5.266,1.266-2.242,2.149-4.851,2.645-7.827.495-2.94.486-5.513-.027-7.716-.517-2.206-1.508-3.922-2.976-5.155-1.472-1.23-3.4091-1.845-5.8181-1.845-2.478,0-4.639.642-6.475,1.929-1.839,1.286-3.346,3.041-4.52,5.262-1.158,2.224-1.967,4.731-2.426,7.525-.478,2.83-.496,5.376-.054,7.636.439,2.26,1.367,4.051,2.782,5.373,1.415,1.304,3.343,1.958,5.788,1.958Z"/><path d="M1601.6451,47.711l-.08,1.5615h34.83l.21-1.2364c.77-4.3653.4701-9.5007-.46-14.3041-.9399-4.802-2.54-9.409-4.51-12.7081-3.89-6.5443-10.0499-11.5734-18.35-15.1363-8.3101-3.613-18.42-5.3876-30.28-5.3876-11.6699,0-22.46,1.7557-32.36,5.2846-9.83,3.4826-18.05,8.4085-24.6,14.8008-6.53,6.3757-10.67,13.863-12.38,22.4377v.0221c-1.9301,10.497.5,19.0705,7.48,25.4322,6.79,6.1942,16.71,10.653,29.6,13.483q.01,0,.01.003l16.49,3.728.03.006c5.4399,1.144,9.95,2.454,13.54,3.92l.0299.009c3.62,1.415,6.0801,3.068,7.55,4.883,1.37,1.684,1.86,3.785,1.3199,6.496l-.0099.017c-.54,2.932-2.0601,5.561-4.62,7.905-2.5901,2.355-6.01,4.238-10.3201,5.612l-.01.002c-4.24,1.365-9.15,2.06-14.74,2.06-5.63,0-10.46-.737-14.53-2.179-.99-.361-1.2899-.621-1.36-.707-.01-.003-.01-.006-.01-.009-.01-.018-.02-.072-.02-.206,0-.039.01-.105.01-.188.02-.329.0601-.956,0-1.49-.09-.815-.39-1.692-1.0599-2.648-.75-1.086-.9301-2.62-.75-4.713.1-1.024.27-2.11.46-3.259.02-.153.05-.305.0801-.457.1599-.997.34-2.036.46-3.063l.21-1.674h-44.0599l-.2101,1.253c-1.63,10.066-.4399,18.683,3.74,25.728l.01.009c4.2101,6.961,10.91,12.149,19.9401,15.618,9.01,3.459,19.98,5.164,32.85,5.164,12.98,0,24.46-1.684,34.42-5.078v-.003c9.95-3.436,18.0499-8.277,24.26-14.558v-.003c6.22-6.337,10.1899-13.844,11.8899-22.486v-.009c1.12-5.877.92-11.19-.6699-15.886-1.5801-4.656-4.3-8.6922-8.13-12.0972-3.74-3.3745-8.37-6.1891-13.84-8.4624-5.4-2.2645-11.4501-4.0671-18.16-5.416l-13.5601-2.9301-.02-.0033c-3.1799-.6555-6.1899-1.4406-9.0099-2.354-2.78-.9462-5.16-2.0316-7.15-3.2456-1.87-1.2149-3.1901-2.6079-4.02-4.1592-.73-1.44-.92-3.1961-.41-5.3713v-.0289l.01-.0293c.5-2.6465,1.8-4.9954,3.96-7.0649,2.2101-2.1187,5.2101-3.8187,9.0701-5.0557l.01-.0044c3.8199-1.2705,8.39-1.9233,13.72-1.9233,7.88,0,13.48,1.4916,17.0601,4.2259l.0099.0057c1.6901,1.2707,3.38,3.8688,4.6201,6.9774,1.24,3.0814,1.9199,6.39,1.8099,8.8902Z" style="fill:#f88f1f; stroke:#f88f1f;"/><path d="M1349.2751,139.3024l31.34-135.8176h120.9l-7.46,34.3275h-77.61l-4.4801,16.4175h71.64l-7.46,31.3426h-70.15l-5.97,25.372h76.12l-2.99,28.358h-123.88Z" style="fill:#f88f1f;"/><path d="M1205.9851,139.3024l31.3501-135.8176h120.8999l-7.47,34.3275h-77.61l-4.48,16.4175h71.65l-7.4701,31.3426h-70.1499l-5.9701,25.372h76.12l-2.98,28.358h-123.89Z" style="fill:#f88f1f;"/><path d="M1050.7952,141.9734l-.38,1.806h77.48c13.37,0,25.03-1.668,34.97-5.041,9.9501-3.358,17.99-7.949,24.0601-13.815l.01-.003c6.0599-5.907,9.9399-12.665,11.5699-20.268,1.49-7.009.89-13.223-1.96-18.519-2.8101-5.206-7.05-9.2146-12.66-12.0232-3.96-2.0148-8.26-3.3653-12.88-4.0605,4.4401-1.1029,8.64-2.6113,12.6-4.5273,5.51-2.6671,10.17-6.0849,13.9401-10.2627,3.86-4.2149,6.4299-9.1416,7.7-14.7549v-.011c1.5701-7.2023.6801-13.6836-2.78-19.3321-3.46-5.6996-9.47-10.0263-17.7799-13.0919-8.3-3.0793-19.04-4.585-32.16-4.585h-72.09l-.25,1.1803-29.39,137.3083ZM1156.2451,92.1424l.01.021c1.51,2.54,1.98,5.504,1.29,8.994-.99,4.635-3.9501,8.444-9.13,11.405-5.15,2.944-12.77,4.499-23.03,4.499h-28.67l7.0601-33.489h30.08c5.99,0,10.8201.812,14.55,2.367l.01.003c3.8199,1.564,6.37,3.66,7.83,6.2ZM1158.5251,53.2221l-.01.0015c-2.63,2.4214-6.04,4.3363-10.25,5.7136-4.16,1.3325-8.7,2.0059-13.63,2.0059h-25.9l6.62-31.0073h27.14c8.12,0,13.76,1.5065,17.23,4.2393l.02.0131c1.77,1.3519,2.91,2.877,3.52,4.5662.61,1.6928.72,3.6572.25,5.9449-.6799,3.2477-2.33,6.0817-4.99,8.5228Z" style="fill:#f88f1f; stroke:#f88f1f;"/><path d="M1004.6152,47.711l-.07,1.5615h34.8199l.2201-1.2364c.7599-4.3653.47-9.5007-.4701-14.3041-.9299-4.802-2.5399-9.409-4.5-12.7081-3.89-6.5443-10.0599-11.5734-18.35-15.1363-8.31-3.613-18.425-5.3876-30.288-5.3876-11.666,0-22.457,1.7557-32.3521,5.2846-9.836,3.4826-18.052,8.4085-24.604,14.8008-6.528,6.3757-10.6689,13.863-12.376,22.4377l-.006.0221c-1.926,10.497.504,19.0705,7.481,25.4322,6.794,6.1942,16.713,10.653,29.603,13.483q.003,0,.006.003l16.496,3.728.021.006c5.448,1.144,9.955,2.454,13.549,3.92l.021.009c3.624,1.415,6.087,3.068,7.558,4.883,1.371,1.684,1.86,3.785,1.317,6.496l-.006.017c-.549,2.932-2.06,5.561-4.627,7.905-2.585,2.355-6.003,4.238-10.323,5.612l-.0031.002c-4.245,1.365-9.152,2.06-14.737,2.06-5.6299,0-10.4659-.737-14.535-2.179-.994-.361-1.292-.621-1.364-.707-.006-.003-.009-.006-.009-.009-.006-.018-.015-.072-.012-.206,0-.039.006-.105.009-.188.021-.329.057-.956-.003-1.49-.095-.815-.388-1.692-1.066-2.648-.74-1.086-.925-2.62-.74-4.713.093-1.024.263-2.11.454-3.259.024-.153.051-.305.077-.457.165-.997.341-2.036.466-3.063l.209-1.674h-44.063l-.206,1.253c-1.633,10.066-.445,18.683,3.737,25.728l.009.009c4.215,6.961,10.914,12.149,19.944,15.618,9.012,3.459,19.976,5.164,32.851,5.164,12.9789,0,24.46-1.684,34.415-5.078l.006-.003c9.941-3.436,18.041-8.277,24.251-14.558l.0099-.003c6.21-6.337,10.18-13.844,11.8901-22.486v-.009c1.11-5.877.9199-11.19-.67-15.886-1.58-4.656-4.3-8.6922-8.13-12.0972-3.75-3.3745-8.37-6.1891-13.84-8.4624-5.4-2.2645-11.457-4.0671-18.167-5.416l-13.562-2.9301-.015-.0033c-3.185-.6555-6.188-1.4406-9.009-2.354-2.785-.9462-5.164-2.0316-7.155-3.2456-1.869-1.2149-3.185-2.6079-4.021-4.1592-.729-1.44-.914-3.1961-.409-5.3713l.006-.0289.006-.0293c.501-2.6465,1.8-4.9954,3.961-7.0649,2.215-2.1187,5.215-3.8187,9.066-5.0557l.012-.0044c3.824-1.2705,8.388-1.9233,13.719-1.9233,7.881,0,13.484,1.4916,17.066,4.2259l.006.0057c1.686,1.2707,3.376,3.8688,4.626,6.9774,1.23,3.0814,1.92,6.39,1.8,8.8902Z" style="stroke:#000;"/><path d="M864.3162,47.711l-.072,1.5615h34.824l.215-1.2364c.762-4.3653.469-9.5007-.468-14.3041-.935-4.802-2.538-9.409-4.502-12.7081-3.893-6.5443-10.054-11.5734-18.353-15.1363-8.31-3.613-18.421-5.3876-30.284-5.3876-11.665,0-22.457,1.7557-32.352,5.2846-9.836,3.4826-18.051,8.4085-24.604,14.8008-6.528,6.3757-10.668,13.863-12.376,22.4377l-.006.0221c-1.925,10.497.505,19.0705,7.481,25.4322,6.794,6.1942,16.713,10.653,29.603,13.483q.0031,0,.006.003l16.496,3.728.021.006c5.448,1.144,9.955,2.454,13.549,3.92l.021.009c3.624,1.415,6.087,3.068,7.559,4.883,1.37,1.684,1.859,3.785,1.316,6.496l-.006.017c-.549,2.932-2.06,5.561-4.627,7.905-2.585,2.355-6.003,4.238-10.322,5.612l-.003.002c-4.245,1.365-9.153,2.06-14.738,2.06-5.63,0-10.466-.737-14.535-2.179-.994-.361-1.292-.621-1.364-.707-.006-.003-.009-.006-.009-.009-.006-.018-.015-.072-.012-.206,0-.039.006-.105.009-.188.021-.329.057-.956-.003-1.49-.095-.815-.388-1.692-1.065-2.648-.741-1.086-.926-2.62-.741-4.713.093-1.024.263-2.11.454-3.259.024-.153.051-.305.078-.457.164-.997.34-2.036.465-3.063l.209-1.674h-44.063l-.206,1.253c-1.633,10.066-.445,18.683,3.737,25.728l.009.009c4.215,6.961,10.914,12.149,19.944,15.618,9.012,3.459,19.976,5.164,32.851,5.164,12.979,0,24.46-1.684,34.416-5.078l.006-.003c9.943-3.436,18.045-8.277,24.251-14.558l.006-.003c6.218-6.337,10.188-13.844,11.889-22.486v-.009c1.117-5.877.923-11.19-.668-15.886-1.579-4.656-4.299-8.6922-8.132-12.0972-3.743-3.3745-8.367-6.1891-13.839-8.4624-5.397-2.2645-11.454-4.0671-18.164-5.416l-13.562-2.9301-.015-.0033c-3.185-.6555-6.188-1.4406-9.009-2.354-2.785-.9462-5.164-2.0316-7.155-3.2456-1.869-1.2149-3.185-2.6079-4.021-4.1592-.728-1.44-.913-3.1961-.409-5.3713l.006-.0289.006-.0293c.501-2.6465,1.8-4.9954,3.961-7.0649,2.215-2.1187,5.215-3.8187,9.066-5.0557l.012-.0044c3.824-1.2705,8.388-1.9233,13.72-1.9233,7.88,0,13.483,1.4916,17.066,4.2259l.006.0057c1.686,1.2707,3.379,3.8688,4.624,6.9774,1.232,3.0814,1.919,6.39,1.803,8.8902Z" style="stroke:#000;"/><path d="M614.9351,139.3024L646.2792,3.4848h120.8979l-7.463,34.3275h-77.613l-4.478,16.4175h71.643l-7.463,31.3426h-70.15l-5.97,25.372h76.12l-2.985,28.358h-123.8831Z"/><path d="M494.0381,6.4699l-32.836,135.8175h44.776l10.448-49.252h31.344c2.985,1.991,8.956,8.059,8.956,16.417l-1.493,32.835h44.777l1.492-47.76c0-2.985-2.388-14.029-11.94-16.4175h-1.493c11.442-4.9751,35.822-22.089,29.852-44.775-2.487-8.955-11.941-25.3725-32.837-25.3725l-91.046-1.4925ZM528.3671,37.8125l-5.971,28.3575h37.314c7.962-5.4724,20.001-18.8055,4.478-28.3575h-35.821Z" style="fill-rule:evenodd;"/><path d="M316.4232,142.2874L346.2741,4.378h74.509c11.478,0,20.902,2.2014,28.272,6.604,7.421,4.353,12.615,10.4129,13.552,12.8084,3.018,7.7171,3.711,16.6211,2.078,26.7124-1.683,10.1407-5.343,19.0697-10.982,26.7862-5.591,7.6684-12.863,13.6534-21.815,17.9574-8.956,4.305-19.293,6.454-31.019,6.454h-38.215l13.922-32.5455h24.293c6.233,0,9.66.6346,14.063-1.4925,4.451-2.1767,5.576-3.6536,8.197-7.4625,2.624-3.8584,2.251-4.4775,2.251-9.6971.842-5.0951-4.478-9.7054-4.597-9.7054-2.866-2.985-5.851-2.985-8.836-2.985h-28.359l-23.881,104.475h-43.284Z"/><path d="M238.8971,4.9774l11.853,38.805,28.359-38.805h52.24l-62.688,65.67,35.821,71.64h-53.732l-14.925-41.79h-2.986l-31.343,43.282-53.733-1.492,62.088-83.0373-24.774-54.2727h53.82Z"/><path d="M70.1504,66.1699L0,140.7954h29.8512l68.6578-73.133L65.6727,6.4699h-28.3587l32.8364,59.7Z"/><path d="M116.4201,66.1699l-71.6433,76.1175h31.3438l70.1505-71.64L113.4351,4.9774h-26.8666l29.8516,61.1925Z"/><path d="M162.6891,66.1699l-71.6429,76.1175h31.3439l70.15-71.64L159.7041,4.9774h-26.866l29.851,61.1925Z"/></svg>